<svg width="159" height="40" viewBox="0 0 159 40" fill="none" xmlns="http://www.w3.org/2000/svg">
<path fill-rule="evenodd" clip-rule="evenodd" d="M61.2006 17.8231C59.8007 16.5122 57.9975 15.715 56.0857 15.5617C54.174 15.4084 52.2668 15.9082 50.6759 16.9793V15.1522V9.6543H47.2791V15.1522C47.2811 15.8147 47.536 16.4514 47.9918 16.9322C48.4476 17.413 49.0697 17.7015 49.7312 17.7389L49.6374 17.8231C48.0347 19.3472 47.2334 21.171 47.2334 23.2945C47.223 24.3281 47.4319 25.352 47.8463 26.2989C48.2607 27.2458 48.8711 28.094 49.6374 28.7877C50.4011 29.5295 51.3041 30.1129 52.2943 30.504C53.2846 30.8952 54.3425 31.0864 55.407 31.0666C57.567 31.1059 59.6542 30.2863 61.2102 28.7877C61.9774 28.0948 62.5886 27.2467 63.003 26.2997C63.4175 25.3526 63.6258 24.3282 63.6142 23.2945C63.6142 21.1726 62.8097 19.3488 61.2006 17.8231ZM58.7582 26.6313C58.0958 27.288 57.2543 27.7345 56.3392 27.9148C55.4241 28.0951 54.4761 28.0011 53.6142 27.6448C52.7523 27.2884 52.0148 26.6854 51.4942 25.9115C50.9736 25.1376 50.6931 24.2272 50.6879 23.2945C50.6795 22.6749 50.7995 22.0603 51.0403 21.4893C51.2811 20.9184 51.6375 20.4035 52.0871 19.977C52.9729 19.0946 54.1723 18.5992 55.4226 18.5992C56.6729 18.5992 57.8723 19.0946 58.7582 19.977C59.206 20.4045 59.5607 20.9197 59.8002 21.4906C60.0398 22.0614 60.1588 22.6755 60.1501 23.2945C60.1573 23.9162 60.0376 24.5327 59.7983 25.1065C59.559 25.6802 59.205 26.1991 58.7582 26.6313ZM78.2233 9.85382H74.7615V30.771H78.2233V9.85382ZM70.3166 15.9576H66.8548V30.7685H70.3166V15.9576ZM123.995 26.8933C124.732 26.0473 125.122 24.9542 125.087 23.833V15.9576H128.601V24.0999C128.601 24.4004 128.584 24.684 128.56 24.9629C128.558 24.9949 128.554 25.0268 128.549 25.0587C128.543 25.1013 128.536 25.1439 128.536 25.1865C128.51 25.4004 128.481 25.6096 128.443 25.8091C128.433 25.862 128.423 25.9173 128.411 25.9702C127.608 29.7444 124.341 31.1412 121.284 31.1412C118.226 31.1412 114.961 29.7444 114.156 25.9702C114.154 25.9612 114.152 25.9521 114.15 25.943C114.148 25.9333 114.145 25.9235 114.143 25.9137C114.134 25.8787 114.124 25.8434 114.124 25.8091C114.086 25.6096 114.057 25.4004 114.033 25.1865C114.03 25.1578 114.026 25.1292 114.021 25.1005C114.014 25.0546 114.007 25.0088 114.007 24.9629C113.983 24.684 113.968 24.4004 113.968 24.0999V15.9576H117.466V23.833C117.432 24.9541 117.822 26.0468 118.557 26.8933C118.897 27.2801 119.315 27.59 119.784 27.8023C120.253 28.0146 120.762 28.1244 121.276 28.1244C121.791 28.1244 122.3 28.0146 122.769 27.8023C123.237 27.59 123.656 27.2801 123.995 26.8933ZM146.497 16.3855C147.715 15.748 149.103 15.5084 150.466 15.7003C154.966 16.3831 156.54 19.7727 156.54 22.8017V30.783H153.079V22.7152C153.101 21.6629 152.718 20.6423 152.009 19.864C151.707 19.4928 151.327 19.1926 150.895 18.9848C150.464 18.7771 149.992 18.6669 149.514 18.662C149.027 18.6526 148.544 18.7509 148.1 18.95C147.655 19.1491 147.261 19.444 146.944 19.8136C146.264 20.5746 145.898 21.5651 145.92 22.5854V30.7589H142.201V22.5733C142.222 21.5528 141.855 20.5623 141.174 19.8015C140.857 19.4317 140.463 19.1366 140.018 18.9375C139.574 18.7384 139.091 18.6402 138.604 18.65C138.126 18.6549 137.654 18.7651 137.223 18.9728C136.791 19.1806 136.411 19.4807 136.109 19.852C135.4 20.6303 135.017 21.6508 135.039 22.7032V30.783H131.577V22.8137C131.577 19.7871 133.152 16.3951 137.655 15.7003C139.016 15.5058 140.404 15.742 141.624 16.3759L141.671 16.402C141.747 16.4438 141.824 16.4859 141.895 16.5297L141.934 16.5537C142.774 17.0778 143.498 17.7693 144.059 18.5851C144.622 17.7732 145.345 17.0852 146.184 16.5634L146.223 16.5393C146.311 16.4864 146.403 16.436 146.497 16.3855ZM95.3661 18.0827C93.8853 16.3999 91.9164 15.5585 89.4595 15.5585C87.1036 15.5585 85.1604 16.3134 83.6298 17.8231C82.8857 18.5359 82.2975 19.3953 81.9023 20.347C81.5071 21.2987 81.3137 22.322 81.334 23.3522C81.3113 24.3967 81.513 25.4338 81.9257 26.3935C82.3384 27.3532 82.9523 28.2131 83.726 28.9151C85.3191 30.4055 87.2703 31.1508 89.5797 31.1508H89.6615C91.0786 31.1411 92.4754 30.8125 93.7482 30.1892C95.0925 29.4655 96.18 28.3436 96.8614 26.9775C96.9287 26.8332 96.9912 26.689 97.0489 26.5447H93.8203C93.443 27.1063 92.9052 27.5411 92.277 27.7924C91.464 28.1447 90.5859 28.3216 89.6999 28.3117H89.6615C88.502 28.337 87.3698 27.9579 86.4593 27.2395C85.7141 26.6409 84.928 25.761 84.8391 24.7826L97.4984 24.7465V23.9532C97.4672 21.5541 96.7965 19.7102 95.3661 18.0827ZM84.7886 22.1695C84.7798 22.1016 84.7798 22.033 84.7886 21.9651C84.8198 21.8233 84.8583 21.6839 84.9016 21.5468V21.5276C85.1596 20.6774 85.6661 19.9239 86.356 19.364C87.1573 18.7101 88.187 18.3832 89.4451 18.3832C90.6471 18.3832 91.8491 18.6717 92.6496 19.2991C93.3855 19.8954 93.9126 20.7104 94.1545 21.6262C94.2023 21.799 94.2329 21.9762 94.2458 22.155L84.7886 22.1695ZM110.569 18.7221H105.177H105.17V24.8932C105.132 25.7407 105.417 26.5709 105.965 27.2179C106.494 27.8172 107.244 28.1169 108.215 28.1169C109.017 28.077 109.809 27.9149 110.562 27.6361V30.5522C109.938 30.9384 108.973 31.1315 107.665 31.1315C105.844 31.1396 104.396 30.5786 103.321 29.4488C102.246 28.3189 101.708 26.9021 101.708 25.1985V18.7221H98.6356V15.9576H101.708V11.1327H105.177V15.9576H110.569V18.7221Z" fill="white"/>
<path fill-rule="evenodd" clip-rule="evenodd" d="M20.3281 11.9743L24.6865 0C24.9053 0.0552918 25.1168 0.127411 25.326 0.213955L20.9676 12.1858C20.7584 12.1065 20.5445 12.0368 20.3281 11.9743ZM18.9386 11.7026L20.8858 0.65629C21.1287 0.488011 21.3811 0.346175 21.6455 0.230784L19.6045 11.8012C19.3858 11.7603 19.1622 11.7267 18.9386 11.7026ZM17.5275 11.6762V4.6998L18.1982 3.81033V11.6594C18.1765 11.6594 18.1549 11.6588 18.1333 11.6582C18.1116 11.6576 18.09 11.657 18.0684 11.657C17.8881 11.657 17.7078 11.6642 17.5275 11.6762ZM15.2918 7.08697L16.138 11.8877C16.3544 11.8348 16.5731 11.7892 16.7967 11.7555L15.8952 6.64223C15.7005 6.8081 15.4985 6.95715 15.2918 7.08697ZM14.811 12.3301C15.0153 12.2411 15.2245 12.1618 15.4384 12.0897L13.8229 7.6519C13.5994 7.69277 13.3686 7.71681 13.133 7.72162L14.811 12.3301ZM12.9983 13.4119C12.8204 13.5489 12.6498 13.6955 12.4863 13.847L5.60366 5.64457C5.78636 5.68303 5.96906 5.72631 6.15417 5.78641L6.76478 5.98353L12.9983 13.4119ZM13.5825 12.9912C13.77 12.8686 13.9623 12.7532 14.1595 12.645L11.1232 7.38746L10.1712 7.07975L13.5825 12.9912ZM22.2514 12.8013C22.059 12.6883 21.8619 12.5801 21.66 12.4815L27.6171 2.16359C27.7541 2.39678 27.8695 2.64199 27.9656 2.90402L22.2514 12.8013ZM22.8884 13.2195C23.0711 13.3518 23.2466 13.4912 23.4149 13.6378L28.1628 7.97884L28.1916 6.89705L22.8884 13.2195ZM9.86836 19.4339C9.86115 19.5781 9.85634 19.7223 9.85634 19.8666C9.85634 19.9214 9.8585 19.9752 9.86065 20.0286C9.86171 20.0548 9.86276 20.0809 9.86355 20.107H5.14211C5.15173 19.881 5.14452 19.6574 5.11567 19.4339H9.86836ZM25.2371 15.8639L29.8311 13.2123C29.6268 13.0705 29.4393 12.919 29.271 12.758L24.8861 15.2894C25.0111 15.4745 25.1265 15.6668 25.2371 15.8639ZM26.2684 19.4363H39.2043C39.2283 19.6598 39.2379 19.8834 39.2307 20.1094H26.2732C26.274 20.0833 26.275 20.0572 26.2761 20.0311V20.031V20.0309V20.0309C26.2782 19.9775 26.2804 19.9238 26.2804 19.869C26.2804 19.7223 26.2756 19.5781 26.2684 19.4363ZM12.3589 25.7684L5.25753 34.2304C5.6013 34.1968 5.95229 34.1271 6.30808 34.0093L6.3225 34.0044L12.859 26.2155C12.6883 26.0737 12.52 25.9222 12.3589 25.7684ZM24.4222 14.6667C24.2803 14.4913 24.1313 14.3254 23.975 14.1643L28.1892 10.628C28.2301 10.8829 28.2926 11.1233 28.3719 11.3516L24.4222 14.6667ZM16.0923 27.8382L15.2028 32.889C15.4072 33.038 15.6043 33.2087 15.7942 33.401L16.751 27.9728C16.5274 27.9368 16.3087 27.8911 16.0923 27.8382ZM25.8308 17.1885C25.7563 16.977 25.6746 16.7678 25.5856 16.5635L32.0716 14.2004L33.127 14.5321L25.8308 17.1885ZM11.5512 14.8735C11.6882 14.6956 11.83 14.5225 11.9815 14.3566L2.28137 6.21912C2.08424 6.33932 1.89433 6.47635 1.71883 6.62299L11.5512 14.8735ZM26.1843 18.6069C26.1482 18.3833 26.1049 18.1646 26.0521 17.9482L37.1368 15.9937C37.3917 16.162 37.6225 16.3495 37.8316 16.5539L26.1843 18.6069ZM25.4053 39.4759L21.0517 27.5185C20.845 27.6002 20.631 27.6723 20.4171 27.7372L24.7995 39.7764C25.0087 39.6899 25.2106 39.5889 25.4053 39.4759ZM18.1982 28.0762V36.7642L17.5275 35.769V28.0594C17.7054 28.0714 17.8857 28.0786 18.0684 28.0786C18.09 28.0786 18.1116 28.078 18.1333 28.0774C18.1549 28.0768 18.1765 28.0762 18.1982 28.0762ZM22.3691 26.8622C22.1792 26.98 21.9821 27.0882 21.7826 27.1891L27.444 36.9974C27.5473 36.6945 27.6219 36.3748 27.6651 36.0358L22.3691 26.8622ZM19.6478 27.9247L21.7778 40C21.5302 39.9375 21.2874 39.8534 21.0518 39.7452L18.9843 28.0257C19.2079 28.0017 19.4291 27.968 19.6478 27.9247ZM23.5471 25.9823C23.3812 26.1314 23.2081 26.2756 23.0278 26.4102L27.8069 32.1053L27.8382 31.0956L23.5471 25.9823ZM26.1122 21.5277C26.1578 21.309 26.1915 21.0878 26.2179 20.8642L38.2114 22.9798C38.0456 23.1865 37.8629 23.3836 37.6585 23.5639L26.1122 21.5277ZM25.9126 22.3042C25.8453 22.5182 25.7684 22.7297 25.6843 22.9365L32.7929 25.5232L33.8482 25.1914L25.9126 22.3042ZM25.0111 24.2466C25.1313 24.0591 25.2443 23.8644 25.3477 23.6649L30.1677 26.4487C29.9297 26.5689 29.7133 26.7035 29.5162 26.8478L25.0111 24.2466ZM24.5496 24.9053C24.4126 25.0832 24.2683 25.2539 24.1169 25.4198L28.1388 28.795C28.2133 28.5618 28.3022 28.3454 28.4056 28.1435L24.5496 24.9053ZM11.1401 15.4625C11.0199 15.6524 10.9069 15.8447 10.8011 16.0442L0 9.80828C0.0264439 9.57028 0.0697157 9.33469 0.132219 9.10631L11.1401 15.4625ZM10.0126 21.458C9.96933 21.2393 9.93568 21.0181 9.91164 20.7945L4.73584 21.708C4.61805 21.9605 4.47381 22.2153 4.30312 22.4677L10.0126 21.458ZM10.0679 18.0155C10.0174 18.2343 9.97416 18.453 9.94291 18.6766L4.50268 17.715C4.34883 17.4554 4.17093 17.1957 3.96419 16.9385L10.0679 18.0155ZM10.3997 22.8067C10.3203 22.5975 10.2482 22.386 10.1857 22.1696L2.3583 25.0183L1.59624 26.0112L10.3997 22.8067ZM10.4934 16.6933C10.4069 16.8976 10.33 17.1092 10.2602 17.3232L1.84387 14.2605L1.04815 13.2556L10.4934 16.6933ZM14.0417 27.0233C13.847 26.9127 13.6547 26.7973 13.4696 26.6699L9.90928 32.8361L10.8661 32.5236L14.0417 27.0233ZM14.7268 27.3694C14.9312 27.4584 15.1403 27.5425 15.3519 27.617L13.6763 32.2183C13.4551 32.175 13.2243 32.1486 12.9887 32.1438L14.7268 27.3694ZM11.8445 25.2203C11.6978 25.0496 11.5584 24.8741 11.4262 24.6938L1.59384 32.9443C1.75731 33.1029 1.93281 33.2496 2.11791 33.3818L11.8445 25.2203ZM10.693 23.4822C10.794 23.6841 10.8997 23.8812 11.0151 24.0736L0.18274 30.3263C0.139469 30.0859 0.113025 29.8407 0.108217 29.5931L10.693 23.4822Z" fill="white"/>
</svg>
