<svg viewBox="0 0 159 40" fill="none" xmlns="http://www.w3.org/2000/svg">
  <path fill-rule="evenodd" clip-rule="evenodd" d="M61.2006 17.8231a8.4733 8.4733 0 0 0-5.1149-2.2613 8.4738 8.4738 0 0 0-5.4098 1.4175v-7.325h-3.3968v5.498a2.5988 2.5988 0 0 0 2.4521 2.5867l-.0938.0841c-1.6027 1.5241-2.404 3.348-2.404 5.4715a7.3102 7.3102 0 0 0 2.404 5.4931 8.0658 8.0658 0 0 0 5.7696 2.279 8.1518 8.1518 0 0 0 5.8032-2.279 7.2906 7.2906 0 0 0 2.404-5.4931c0-2.1219-.8045-3.9457-2.4136-5.4715Zm-2.4424 8.8082a4.7363 4.7363 0 0 1-5.144 1.0135 4.7362 4.7362 0 0 1-2.9263-4.3502 4.489 4.489 0 0 1 1.3992-3.3175 4.7263 4.7263 0 0 1 6.6711 0 4.498 4.498 0 0 1 1.3919 3.3175 4.5672 4.5672 0 0 1-1.3919 3.3367ZM78.2233 9.8539h-3.4618V30.771h3.4618V9.8539Zm-7.9067 6.1037h-3.4618v14.811h3.4618v-14.811Zm53.6784 10.9358a4.4478 4.4478 0 0 0 1.092-3.0603v-7.8755h3.514v8.1423c0 .3005-.017.5842-.041.8631a1.0405 1.0405 0 0 1-.011.0958c-.006.0426-.013.0852-.013.1277-.026.214-.055.4231-.093.6227-.01.0529-.02.1082-.032.161-.803 3.7743-4.07 5.171-7.127 5.171-3.058 0-6.323-1.3967-7.128-5.171a6.0027 6.0027 0 0 1-.006-.0272c-.002-.0097-.005-.0195-.007-.0293-.009-.0349-.019-.0702-.019-.1045-.038-.1996-.067-.4087-.091-.6227a1.2663 1.2663 0 0 0-.012-.0859c-.007-.0459-.014-.0918-.014-.1376a9.974 9.974 0 0 1-.039-.8631v-8.1423h3.498v7.8755a4.4625 4.4625 0 0 0 1.091 3.0603 3.6193 3.6193 0 0 0 4.212.9089 3.6184 3.6184 0 0 0 1.226-.9089Zm22.502-10.5079a6.5794 6.5794 0 0 1 3.969-.6851c4.5.6827 6.074 4.0724 6.074 7.1014v7.9812h-3.461v-8.0678a4.1061 4.1061 0 0 0-1.07-2.8511 3.2519 3.2519 0 0 0-1.114-.8792 3.2597 3.2597 0 0 0-1.381-.3228 3.3003 3.3003 0 0 0-2.57 1.1515 4.0296 4.0296 0 0 0-1.024 2.7718v8.1736h-3.719v-8.1856a4.0315 4.0315 0 0 0-1.027-2.7718 3.294 3.294 0 0 0-1.156-.864 3.294 3.294 0 0 0-1.414-.2875c-.478.0048-.95.115-1.381.3228a3.2519 3.2519 0 0 0-1.114.8792 4.106 4.106 0 0 0-1.07 2.8511v8.0798h-3.462v-7.9692c0-3.0266 1.575-6.4187 6.078-7.1134a6.5867 6.5867 0 0 1 3.969.6755l.047.0261c.076.0419.153.084.224.1278l.039.024a7.21 7.21 0 0 1 2.125 2.0314 7.2383 7.2383 0 0 1 2.125-2.0218l.039-.024a6.544 6.544 0 0 1 .274-.1539Zm-51.1309 1.6973c-1.4808-1.6828-3.4497-2.5242-5.9066-2.5242-2.3559 0-4.2991.7548-5.8297 2.2645a7.4533 7.4533 0 0 0-2.2958 5.5292 7.2972 7.2972 0 0 0 2.392 5.5628c1.5931 1.4905 3.5443 2.2357 5.8537 2.2357h.0818a9.4376 9.4376 0 0 0 4.0867-.9616 7.3966 7.3966 0 0 0 3.1132-3.2117 8.4169 8.4169 0 0 0 .1875-.4327h-3.2286a3.3648 3.3648 0 0 1-1.5433 1.2477 6.3025 6.3025 0 0 1-2.5771.5192h-.0384a4.9927 4.9927 0 0 1-3.2022-1.0722c-.7452-.5985-1.5313-1.4784-1.6202-2.4568l12.6593-.0361v-.7933c-.0312-2.3992-.7019-4.243-2.1323-5.8705Zm-10.5775 4.0867a.7938.7938 0 0 1 0-.2043 4.8412 4.8412 0 0 1 .113-.4183v-.0192a4.451 4.451 0 0 1 1.4544-2.1636c.8013-.6539 1.831-.9809 3.0891-.9809 1.202 0 2.404.2885 3.2045.916a4.4619 4.4619 0 0 1 1.5049 2.327c.0478.1729.0784.35.0913.5289l-9.4572.0144Zm25.7804-3.4473h-5.399v6.1711a3.3646 3.3646 0 0 0 .795 2.3246c.529.5994 1.279.8991 2.25.8991a7.8908 7.8908 0 0 0 2.347-.4808v2.916c-.624.3863-1.589.5794-2.897.5794-1.821.008-3.269-.5529-4.344-1.6828-1.075-1.1299-1.613-2.5466-1.613-4.2502v-6.4764h-3.0724v-2.7646h3.0724v-4.8248h3.469v4.8248h5.392v2.7646Z" fill="#053147"/>
  <path fill-rule="evenodd" clip-rule="evenodd" d="M20.3281 11.9743 24.6865 0a4.644 4.644 0 0 1 .6395.214l-4.3584 11.9718a8.3077 8.3077 0 0 0-.6395-.2115Zm-1.3895-.2717L20.8858.6563a4.4718 4.4718 0 0 1 .7597-.4255l-2.041 11.5704a8.716 8.716 0 0 0-.6659-.0986Zm-1.4111-.0264V4.6998l.6707-.8895v7.8491c-.0217 0-.0433-.0006-.0649-.0012-.0217-.0006-.0433-.0012-.0649-.0012-.1803 0-.3606.0072-.5409.0192ZM15.2918 7.087l.8462 4.8007a7.4367 7.4367 0 0 1 .6587-.1322l-.9015-5.1133a5.1887 5.1887 0 0 1-.6034.4448ZM14.811 12.33a7.8342 7.8342 0 0 1 .6274-.2404l-1.6155-4.4378a4.3274 4.3274 0 0 1-.6899.0697l1.678 4.6085Zm-1.8127 1.0818a7.39 7.39 0 0 0-.512.4351L5.6037 5.6446c.1827.0384.3654.0817.5505.1418l.6106.1971 6.2335 7.4284Zm.5842-.4207a8.708 8.708 0 0 1 .577-.3462l-3.0363-5.2575-.952-.3078 3.4113 5.9115Zm8.6689-.1899a8.7708 8.7708 0 0 0-.5914-.3198l5.9571-10.318a4.538 4.538 0 0 1 .3485.7405l-5.7142 9.8973Zm.637.4182c.1827.1323.3582.2717.5265.4183l4.7479-5.659.0288-1.0817-5.3032 6.3224Zm-13.02 6.2144a8.664 8.664 0 0 0-.012.4327c0 .0548.0021.1086.0042.162.0011.0262.0022.0523.003.0784H5.142a3.932 3.932 0 0 0-.0264-.6731h4.7527Zm15.3687-3.57 4.594-2.6516a4.618 4.618 0 0 1-.5601-.4543l-4.3849 2.5314c.125.1851.2404.3774.351.5745Zm1.0313 3.5724h12.9359c.024.2235.0336.4471.0264.6731H26.2732a6.8262 6.8262 0 0 1 .0029-.0783v-.0002c.0021-.0534.0043-.1071.0043-.1619a8.518 8.518 0 0 0-.012-.4327Zm-13.9095 6.3321-7.1014 8.462a4.8201 4.8201 0 0 0 1.0506-.2211l.0144-.0049 6.5365-7.7889a9.7783 9.7783 0 0 1-.5001-.4471Zm12.0633-11.1017a7.4455 7.4455 0 0 0-.4472-.5024l4.2142-3.5363c.0409.2549.1034.4953.1827.7236l-3.9497 3.3151Zm-8.3299 13.1715-.8895 5.0508c.2044.149.4015.3197.5914.512l.9568-5.4282a8.374 8.374 0 0 1-.6587-.1346Zm9.7385-10.6497a9.319 9.319 0 0 0-.2452-.625l6.486-2.3631 1.0554.3317-7.2962 2.6564Zm-14.2796-2.315c.137-.1779.2788-.351.4303-.5169L2.2814 6.2191a4.6952 4.6952 0 0 0-.5626.4039l9.8324 8.2505Zm14.6331 3.7334a8.4603 8.4603 0 0 0-.1322-.6587l11.0847-1.9545c.2549.1683.4857.3558.6948.5602l-11.6473 2.053Zm-.779 20.869-4.3536-11.9574a8.242 8.242 0 0 1-.6346.2187l4.3824 12.0392a5.0559 5.0559 0 0 0 .6058-.3005Zm-7.2071-11.3997v8.688l-.6707-.9952v-7.7096c.1779.012.3582.0192.5409.0192.0216 0 .0432-.0006.0649-.0012a2.3341 2.3341 0 0 1 .0649-.0012Zm4.1709-1.214a7.736 7.736 0 0 1-.5865.3269l5.6614 9.8083a4.8794 4.8794 0 0 0 .2211-.9616l-5.296-9.1736Zm-2.7213 1.0625L21.7778 40a4.1989 4.1989 0 0 1-.726-.2548l-2.0675-11.7195a7.58 7.58 0 0 0 .6635-.101Zm3.8993-1.9424a7.421 7.421 0 0 1-.5193.4279l4.7791 5.6951.0313-1.0097-4.2911-5.1133Zm2.5651-4.4546a7.6293 7.6293 0 0 0 .1057-.6635l11.9935 2.1156c-.1658.2067-.3485.4038-.5529.5841l-11.5463-2.0362Zm-.1996.7765a8.2592 8.2592 0 0 1-.2283.6323l7.1086 2.5867 1.0553-.3318-7.9356-2.8872Zm-.9015 1.9424a7.3298 7.3298 0 0 0 .3366-.5817l4.82 2.7838a4.6478 4.6478 0 0 0-.6515.3991l-4.5051-2.6012Zm-.4615.6587a8.0404 8.0404 0 0 1-.4327.5145l4.0219 3.3752a4.285 4.285 0 0 1 .2668-.6515l-3.856-3.2382Zm-13.4095-9.4428a8.7498 8.7498 0 0 0-.339.5817L0 9.8082a4.577 4.577 0 0 1 .1322-.7019l11.0079 6.3562Zm-1.1275 5.9955a7.6064 7.6064 0 0 1-.101-.6635l-5.1758.9135a5.543 5.543 0 0 1-.4327.7597l5.7095-1.0097Zm.0553-3.4425c-.0505.2188-.0937.4375-.125.6611l-5.4402-.9616a6.6445 6.6445 0 0 0-.5385-.7765l6.1037 1.077Zm.3318 4.7912a8.2251 8.2251 0 0 1-.214-.6371l-7.8274 2.8487-.762.9929 8.8034-3.2045Zm.0937-6.1134a7.9065 7.9065 0 0 0-.2332.6299l-8.4163-3.0627-.7958-1.0049 9.4453 3.4377Zm3.5483 10.33c-.1947-.1106-.387-.226-.5721-.3534l-3.5603 6.1662.9568-.3125 3.1756-5.5003Zm.6851.3461c.2044.089.4135.1731.6251.2476l-1.6756 4.6013a4.0105 4.0105 0 0 0-.6876-.0745l1.7381-4.7744Zm-2.8823-2.1491a8.7032 8.7032 0 0 1-.4183-.5265l-9.8324 8.2505c.1635.1586.339.3053.5241.4375l9.7266-8.1615Zm-1.1515-1.7381c.101.2019.2067.399.3221.5914L.1827 30.3263a4.6502 4.6502 0 0 1-.0745-.7332l10.5848-6.1109Z" fill="url(#paint0_radial_209_8882)"/>
  <defs>
    <radialGradient id="paint0_radial_209_8882" cx="0" cy="0" r="1" gradientUnits="userSpaceOnUse" gradientTransform="rotate(73.54 -4.0527 22.4219) scale(26.6932 26.073)">
      <stop offset=".2292" stop-color="#3AA1FF"/>
      <stop offset=".8802" stop-color="#00F8FF"/>
    </radialGradient>
  </defs>
</svg>
