<svg width="80" height="80" viewBox="0 0 80 80" fill="none" xmlns="http://www.w3.org/2000/svg">
<path d="M0 12C0 5.37258 5.37258 0 12 0H68C74.6274 0 80 5.37258 80 12V68C80 74.6274 74.6274 80 68 80H12C5.37258 80 0 74.6274 0 68V12Z" fill="#27BD75"/>
<path fill-rule="evenodd" clip-rule="evenodd" d="M54.1626 41.5794C54.2551 40.7164 55.0192 40.0813 55.8873 40.0813L55.8876 40.0808C56.3903 40.0832 56.8685 40.2992 57.2021 40.6753C57.5359 41.0514 57.6938 41.5517 57.6363 42.0512V42.051C56.5055 52.016 46.9077 59.5209 36.2737 57.134C29.7149 55.663 24.4902 50.3314 23.1293 43.7483C20.9866 33.393 28.1954 24.1088 37.8467 22.7664C38.351 22.6972 38.8608 22.849 39.2451 23.1831C39.6293 23.5172 39.8506 24.0007 39.852 24.5099C39.8519 25.3604 39.2426 26.114 38.4003 26.2265C30.575 27.2708 24.7415 34.8272 26.6026 43.2302C27.7321 48.3349 31.8048 52.4796 36.8939 53.6807C45.5021 55.714 53.2955 49.6472 54.1626 41.5794ZM32.6247 37.5358C33.2224 37.3757 33.86 37.5465 34.2973 37.9841L38.5022 42.1836L52.3176 28.3544C52.7555 27.9164 53.394 27.7453 53.9921 27.9057C54.5905 28.066 55.0578 28.5333 55.2181 29.1317C55.3785 29.7298 55.2074 30.3684 54.7694 30.8062L39.6565 45.9178C39.3487 46.2259 38.931 46.3989 38.4956 46.3989C38.06 46.3989 37.6423 46.2259 37.3345 45.9178L31.8484 40.4327C31.4111 39.9953 31.2403 39.3578 31.4004 38.7601C31.5606 38.1627 32.0273 37.6959 32.6247 37.5358Z" fill="white"/>
</svg>
