<svg width="12" height="12" viewBox="0 0 12 12" fill="none" xmlns="http://www.w3.org/2000/svg">
<path d="M11.7336 0.2753C11.5635 0.104877 11.3327 0.00910126 11.0919 0.00910126C10.8512 0.00910126 10.6204 0.104877 10.4503 0.2753L5.99979 4.71672L1.54928 0.266199C1.37924 0.0957752 1.14838 0 0.907637 0C0.666893 0 0.436039 0.0957752 0.265998 0.266199C-0.0889509 0.621148 -0.0889509 1.19453 0.265998 1.54948L4.71652 5.99999L0.265998 10.4505C-0.0889509 10.8055 -0.0889509 11.3788 0.265998 11.7338C0.620947 12.0887 1.19433 12.0887 1.54928 11.7338L5.99979 7.28327L10.4503 11.7338C10.8053 12.0887 11.3786 12.0887 11.7336 11.7338C12.0885 11.3788 12.0885 10.8055 11.7336 10.4505L7.28307 5.99999L11.7336 1.54948C12.0794 1.20363 12.0794 0.621148 11.7336 0.2753Z" fill="#2F80ED"/>
</svg>
