<svg width="81" height="80" viewBox="0 0 81 80" fill="none" xmlns="http://www.w3.org/2000/svg">
<path d="M0.666504 12C0.666504 5.37258 6.03909 0 12.6665 0H68.6665C75.2939 0 80.6665 5.37258 80.6665 12V68C80.6665 74.6274 75.2939 80 68.6665 80H12.6665C6.03909 80 0.666504 74.6274 0.666504 68V12Z" fill="#FBAF5A"/>
<g clip-path="url(#clip0_546_28824)">
<path d="M53.3724 49.6176V54.5588C53.3724 55.3385 52.7405 55.9707 51.9608 55.9707H18.0784C17.2987 55.9707 16.6665 55.3385 16.6665 54.5588V49.6176C16.6665 48.8379 17.2986 48.206 18.0784 48.206C20.0276 48.206 21.6077 46.6256 21.6077 44.6764C21.6077 42.7272 20.0276 41.1472 18.0784 41.1472C17.2987 41.1472 16.6665 40.515 16.6665 39.7353V34.7941C16.6665 34.0144 17.2986 33.3822 18.0784 33.3822H51.9608C52.7405 33.3822 53.3724 34.0144 53.3724 34.7941V39.7353C53.3724 40.515 52.7405 41.1472 51.9608 41.1472C50.0116 41.1472 48.4312 42.7272 48.4312 44.6764C48.4312 46.6256 50.0116 48.206 51.9608 48.206C52.7405 48.206 53.3724 48.8379 53.3724 49.6176ZM27.9606 53.1472V51.7353C27.9606 50.9556 28.5925 50.3234 29.3722 50.3234C30.1519 50.3234 30.7841 50.9556 30.7841 51.7353V53.1472H50.5484V50.872C47.7193 50.2299 45.6072 47.7 45.6072 44.6764C45.6072 41.6531 47.7193 39.123 50.5484 38.4809V36.206H30.7841V37.6176C30.7841 38.3973 30.1519 39.0295 29.3722 39.0295C28.5925 39.0295 27.9606 38.3973 27.9606 37.6176V36.206H19.49V38.4809C22.3191 39.1229 24.4312 41.6531 24.4312 44.6764C24.4312 47.7 22.3191 50.2299 19.49 50.872V53.1472H27.9606ZM27.9606 43.2647C27.9606 42.485 28.5925 41.8528 29.3722 41.8528C30.1519 41.8528 30.7841 42.485 30.7841 43.2647V46.0882C30.7841 46.8679 30.1519 47.4998 29.3722 47.4998C28.5925 47.4998 27.9606 46.8679 27.9606 46.0882V43.2647ZM30.7841 26.3235V29.1473C30.7841 29.927 30.1519 30.5589 29.3722 30.5589C28.5925 30.5589 27.9606 29.927 27.9606 29.1473V24.9119C27.9606 24.1322 28.5925 23.5 29.3722 23.5H63.2546C64.0344 23.5 64.6665 24.1321 64.6665 24.9119V29.8531C64.6665 30.6328 64.0344 31.2649 63.2546 31.2649C61.3054 31.2649 59.7253 32.845 59.7253 34.7942C59.7253 36.7434 61.3054 38.3235 63.2546 38.3235C64.0344 38.3235 64.6665 38.9557 64.6665 39.7354V44.6766C64.6665 45.4563 64.0344 46.0885 63.2546 46.0885H54.0784C53.2987 46.0885 52.6665 45.4563 52.6665 44.6766C52.6665 43.8969 53.2987 43.265 54.0784 43.265H61.8427V40.9898C59.0136 40.3477 56.9016 37.8175 56.9016 34.7942C56.9016 31.7709 59.0136 29.2408 61.8427 28.5987V26.3235H30.7841Z" fill="white"/>
</g>
<defs>
<clipPath id="clip0_546_28824">
<path d="M16.6665 20C16.6665 17.7909 18.4574 16 20.6665 16H60.6665C62.8756 16 64.6665 17.7909 64.6665 20V60C64.6665 62.2091 62.8756 64 60.6665 64H20.6665C18.4574 64 16.6665 62.2091 16.6665 60V20Z" fill="white"/>
</clipPath>
</defs>
</svg>
