<svg width="81" height="80" viewBox="0 0 81 80" fill="none" xmlns="http://www.w3.org/2000/svg">
<path d="M0.333008 12C0.333008 5.37258 5.70559 0 12.333 0H68.333C74.9604 0 80.333 5.37258 80.333 12V68C80.333 74.6274 74.9604 80 68.333 80H12.333C5.70559 80 0.333008 74.6274 0.333008 68V12Z" fill="#98ECC4"/>
<g clip-path="url(#clip0_353_8294)">
<path d="M48.0981 29.4116V27.2942H42.451C41.6712 27.2942 41.039 26.6621 41.039 25.8823V17.4116C41.039 16.6322 41.6712 16 42.451 16H56.5681C57.348 16 57.9801 16.6321 57.9801 17.4116V25.8823C57.9801 26.6621 57.348 27.2942 56.5681 27.2942H50.9214V29.4116H53.8028C56.6639 29.4116 59.2424 31.1389 60.3308 33.785C62.0612 37.9921 62.9214 42.8887 62.9214 48.4705V54.1176C63.7009 54.1176 64.333 54.7494 64.333 55.5292V59.7647C64.333 62.1037 62.4369 63.9998 60.0979 63.9998H20.5682C18.2291 63.9998 16.333 62.1037 16.333 59.7647V55.5292C16.333 54.7494 16.9652 54.1176 17.7446 54.1176V48.4705C17.7446 42.889 18.6048 37.9919 20.3352 33.785C21.0487 32.0513 22.4111 30.694 24.0979 29.9758V26.5884C24.0979 26.1595 24.2927 25.7537 24.6276 25.4858L28.1569 22.6623C28.6598 22.2602 29.371 22.2491 29.886 22.6352L31.8624 24.1178L33.8389 22.6352C34.3542 22.2491 35.0654 22.2602 35.568 22.6623L39.0973 25.4858C39.4325 25.7537 39.6273 26.1595 39.6273 26.5884V29.4116H48.0981ZM19.1567 56.9413V59.7649C19.1567 60.5443 19.7888 61.1765 20.5683 61.1765H60.098C60.8775 61.1765 61.5097 60.5443 61.5097 59.7649V56.9413H19.1567ZM24.098 44.2351V33.2628C23.6017 33.6907 23.2036 34.2341 22.9465 34.8592C21.3648 38.7046 20.5682 43.2397 20.5682 48.4706V54.1177H60.098V48.4706C60.098 43.2397 59.3014 38.7043 57.7197 34.8592C57.0665 33.2718 55.5196 32.2352 53.803 32.2352H39.6276V44.2352C40.407 44.2352 41.0392 44.8674 41.0392 45.6472C41.0392 46.427 40.4071 47.0588 39.6276 47.0588H24.0979C23.3181 47.0588 22.6859 46.427 22.6859 45.6472C22.6859 44.8674 23.318 44.2352 24.0979 44.2352L24.098 44.2351ZM43.8628 24.4702H55.1574V18.8231H43.8628V24.4702ZM26.9222 27.2663V44.2343H36.8042V27.2663L34.6587 25.55L32.7101 27.0112C32.2082 27.3879 31.5178 27.3879 31.0159 27.0112L29.0676 25.55L26.9222 27.2663ZM49.5105 37.1757C48.7307 37.1757 48.0989 36.5436 48.0989 35.7641C48.0989 34.9843 48.7307 34.3521 49.5105 34.3521C50.2903 34.3521 50.9225 34.9843 50.9225 35.7641C50.9225 36.5436 50.2904 37.1757 49.5105 37.1757ZM44.5693 37.1757C43.7898 37.1757 43.1576 36.5436 43.1576 35.7641C43.1576 34.9843 43.7898 34.3521 44.5693 34.3521C45.3491 34.3521 45.9812 34.9843 45.9812 35.7641C45.9812 36.5436 45.3491 37.1757 44.5693 37.1757ZM54.4521 37.1757C53.6723 37.1757 53.0402 36.5436 53.0402 35.7641C53.0402 34.9843 53.6723 34.3521 54.4521 34.3521C55.2316 34.3521 55.8638 34.9843 55.8638 35.7641C55.8638 36.5436 55.2316 37.1757 54.4521 37.1757ZM49.5109 42.117C48.7311 42.117 48.0992 41.4848 48.0992 40.705C48.0992 39.9255 48.731 39.2934 49.5109 39.2934C50.2907 39.2934 50.9228 39.9255 50.9228 40.705C50.9228 41.4848 50.2907 42.117 49.5109 42.117ZM44.5696 42.117C43.7901 42.117 43.158 41.4848 43.158 40.705C43.158 39.9255 43.7901 39.2934 44.5696 39.2934C45.3494 39.2934 45.9816 39.9255 45.9816 40.705C45.9816 41.4848 45.3494 42.117 44.5696 42.117ZM54.4525 42.117C53.6727 42.117 53.0405 41.4848 53.0405 40.705C53.0405 39.9255 53.6726 39.2934 54.4525 39.2934C55.2319 39.2934 55.8641 39.9255 55.8641 40.705C55.8641 41.4848 55.232 42.117 54.4525 42.117ZM49.5112 47.058C48.7314 47.058 48.0996 46.4262 48.0996 45.6463C48.0996 44.8665 48.7314 44.2344 49.5112 44.2344C50.291 44.2344 50.9232 44.8665 50.9232 45.6463C50.9232 46.4261 50.291 47.058 49.5112 47.058ZM44.57 47.058C43.7905 47.058 43.1583 46.4262 43.1583 45.6463C43.1583 44.8665 43.7905 44.2344 44.57 44.2344C45.3498 44.2344 45.9819 44.8665 45.9819 45.6463C45.9819 46.4261 45.3498 47.058 44.57 47.058ZM54.4528 47.058C53.673 47.058 53.0408 46.4262 53.0408 45.6463C53.0408 44.8665 53.673 44.2344 54.4528 44.2344C55.2323 44.2344 55.8644 44.8665 55.8644 45.6463C55.8644 46.4261 55.2323 47.058 54.4528 47.058ZM44.57 51.9992C43.7905 51.9992 43.1583 51.3671 43.1583 50.5876C43.1583 49.8078 43.7905 49.1756 44.57 49.1756H46.6877C47.4675 49.1756 48.0997 49.8078 48.0997 50.5876C48.0997 51.3671 47.4675 51.9992 46.6877 51.9992H44.57ZM30.4528 42.1172C29.673 42.1172 29.0408 41.4851 29.0408 40.7053C29.0408 39.9258 29.673 39.2936 30.4528 39.2936H33.2763C34.0558 39.2936 34.688 39.9258 34.688 40.7053C34.688 41.4851 34.0558 42.1172 33.2763 42.1172H30.4528ZM30.4528 37.176C29.673 37.176 29.0408 36.5438 29.0408 35.7643C29.0408 34.9845 29.673 34.3524 30.4528 34.3524H33.2763C34.0558 34.3524 34.688 34.9845 34.688 35.7643C34.688 36.5438 34.0558 37.176 33.2763 37.176H30.4528ZM52.3348 51.9994C51.555 51.9994 50.9232 51.3673 50.9232 50.5878C50.9232 49.808 51.555 49.1758 52.3348 49.1758H54.4525C55.232 49.1758 55.8642 49.8079 55.8642 50.5878C55.8642 51.3672 55.232 51.9994 54.4525 51.9994H52.3348Z" fill="#335B71"/>
</g>
<defs>
<clipPath id="clip0_353_8294">
<path d="M16.333 20C16.333 17.7909 18.1239 16 20.333 16H60.333C62.5421 16 64.333 17.7909 64.333 20V60C64.333 62.2091 62.5421 64 60.333 64H20.333C18.1239 64 16.333 62.2091 16.333 60V20Z" fill="white"/>
</clipPath>
</defs>
</svg>
