<svg width="28" height="28" viewBox="0 0 28 28" fill="none" xmlns="http://www.w3.org/2000/svg">
<path fill-rule="evenodd" clip-rule="evenodd" d="M8.91516 0.351807H24.843L24.8431 0.351843C25.6398 0.352611 26.4036 0.669396 26.9668 1.23268C27.5301 1.79597 27.8469 2.55976 27.8477 3.35638V18.0702C27.8475 18.2851 27.7654 18.492 27.6182 18.6483C27.4709 18.8047 27.2694 18.8992 27.0549 18.9122C26.8404 18.925 26.6291 18.8558 26.464 18.7183V18.7181L21.6361 14.6952H16.0355C15.7341 14.6952 15.4556 14.5345 15.3047 14.2734C15.154 14.0125 15.154 13.6907 15.3047 13.4298C15.4556 13.1686 15.7341 13.0079 16.0355 13.0079H21.9414C22.1383 13.0069 22.3294 13.075 22.4815 13.2002L26.1602 16.2654V3.35634C26.1597 3.00713 26.0211 2.67238 25.7741 2.42525C25.527 2.17832 25.1922 2.03965 24.8431 2.03925H8.91521C8.566 2.03965 8.23104 2.17832 7.98411 2.42525C7.73718 2.67237 7.59831 3.00716 7.59811 3.35634V13.0079C7.59811 13.3093 7.43743 13.5878 7.17629 13.7385C6.91514 13.8892 6.59358 13.8892 6.33264 13.7385C6.07151 13.5878 5.91063 13.3093 5.91063 13.0079V3.35634C5.91139 2.55972 6.22818 1.79593 6.79146 1.23265C7.35475 0.66937 8.11854 0.352607 8.91516 0.351807ZM13.6894 16.3827H15.9624L15.9623 16.3829C16.8453 16.3829 17.6777 16.7946 18.2138 17.4963C18.7497 18.1979 18.9276 19.1095 18.6951 19.9612L18.6953 19.9614L17.5038 24.3276C17.2657 25.1953 16.7494 25.9609 16.0345 26.5071C15.3193 27.0534 14.4448 27.35 13.545 27.3516H7.59756C7.43147 27.351 7.26938 27.3015 7.13111 27.2097H7.13091L5.52788 26.1415C5.14286 26.7736 4.49977 27.2046 3.76876 27.3211C3.03776 27.4374 2.29262 27.2269 1.73031 26.7456C1.16824 26.2642 0.845476 25.5604 0.847677 24.8202V18.0701C0.844654 17.3191 1.17645 16.6058 1.75254 16.1241C2.32884 15.6425 3.08966 15.4427 3.82824 15.579C4.56682 15.7153 5.20637 16.1735 5.57276 16.8291C7.07533 15.9094 9.28509 14.1333 9.28509 12.1641C9.24427 11.7748 9.33172 11.3831 9.53382 11.0479C9.73617 10.7129 10.0423 10.4532 10.4057 10.3079C10.9443 10.1859 11.5069 10.2197 12.0273 10.405C12.5478 10.5903 13.0048 10.9198 13.3452 11.3549C14.0416 12.1793 14.3195 13.2787 14.0986 14.335L13.6894 16.3827ZM3.80098 25.551C4.06211 25.4001 4.2228 25.1218 4.2228 24.8202V18.0701C4.2228 17.7687 4.06211 17.4902 3.80098 17.3395C3.54003 17.1888 3.21826 17.1888 2.95733 17.3395C2.69619 17.4902 2.53531 17.7687 2.53531 18.0701V24.8202C2.53531 25.1218 2.69619 25.4001 2.95733 25.551C3.21827 25.7017 3.54004 25.7017 3.80098 25.551ZM15.8764 23.8835L17.0668 19.5162L17.067 19.516C17.1609 19.1719 17.0888 18.8035 16.8723 18.5199C16.6558 18.2364 16.3192 18.0701 15.9624 18.0699H12.6601C12.4068 18.0701 12.1667 17.9562 12.0064 17.7599C11.8461 17.5636 11.7827 17.3057 11.8333 17.0575L12.4442 14.004C12.5589 13.4543 12.4176 12.8822 12.0602 12.449C11.8003 12.1168 11.4099 11.9127 10.9887 11.8887C10.9946 11.8924 10.9923 11.9093 10.9879 11.9427C10.9821 11.9862 10.9727 12.0575 10.9727 12.1638C10.9727 15.4816 7.25515 17.833 5.91025 18.5764V24.3685L7.85086 25.6638H13.5452C14.075 25.6628 14.5899 25.4881 15.0109 25.1665C15.432 24.845 15.7359 24.3943 15.8764 23.8835ZM22.7852 4.57057H10.9729C10.6716 4.57057 10.393 4.73125 10.2423 4.99239C10.0915 5.25352 10.0915 5.57509 10.2423 5.83624C10.393 6.09718 10.6716 6.25806 10.9729 6.25806H22.7852C23.0866 6.25806 23.3651 6.09718 23.5158 5.83624C23.6665 5.5751 23.6665 5.25354 23.5158 4.99239C23.3652 4.73123 23.0866 4.57057 22.7852 4.57057ZM16.8788 7.94568H22.7852C23.0866 7.94568 23.3652 8.10634 23.5158 8.3675C23.6665 8.62865 23.6665 8.95021 23.5158 9.21115C23.3651 9.47228 23.0866 9.63317 22.7852 9.63317H16.8788C16.5775 9.63317 16.2989 9.47228 16.1482 9.21115C15.9976 8.9502 15.9976 8.62863 16.1482 8.3675C16.2989 8.10636 16.5775 7.94568 16.8788 7.94568Z" fill="#335B71"/>
</svg>
