<svg width="36" height="36" viewBox="0 0 36 36" fill="none" xmlns="http://www.w3.org/2000/svg">
<path d="M22.0419 8H13.9581C10.6728 8 8 10.6728 8 13.9581V22.0419C8 25.3272 10.6728 28 13.9581 28H22.0419C25.3272 28 28 25.3272 28 22.0419V13.9581C28 10.6728 25.3272 8 22.0419 8ZM25.988 22.0419C25.988 24.2212 24.2212 25.988 22.0419 25.988H13.9581C11.7788 25.988 10.012 24.2212 10.012 22.0419V13.9581C10.012 11.7787 11.7788 10.012 13.9581 10.012H22.0419C24.2212 10.012 25.988 11.7787 25.988 13.9581V22.0419Z" fill="#053147"/>
<path d="M18 12.8273C15.1478 12.8273 12.8273 15.1478 12.8273 18C12.8273 20.8522 15.1478 23.1727 18 23.1727C20.8522 23.1727 23.1727 20.8522 23.1727 18C23.1727 15.1477 20.8522 12.8273 18 12.8273ZM18 21.1607C16.2544 21.1607 14.8393 19.7456 14.8393 18C14.8393 16.2544 16.2544 14.8393 18 14.8393C19.7456 14.8393 21.1607 16.2544 21.1607 18C21.1607 19.7456 19.7456 21.1607 18 21.1607Z" fill="#053147"/>
<path d="M23.1827 14.1056C23.8673 14.1056 24.4222 13.5507 24.4222 12.8661C24.4222 12.1816 23.8673 11.6266 23.1827 11.6266C22.4982 11.6266 21.9432 12.1816 21.9432 12.8661C21.9432 13.5507 22.4982 14.1056 23.1827 14.1056Z" fill="#053147"/>
</svg>
