<svg width="36" height="36" viewBox="0 0 36 36" fill="none" xmlns="http://www.w3.org/2000/svg">
<path fill-rule="evenodd" clip-rule="evenodd" d="M28 18C28 23.5228 23.5228 28 18 28C12.4772 28 8 23.5228 8 18C8 12.4772 12.4772 8 18 8C23.5228 8 28 12.4772 28 18ZM18.4073 22.3859H17.6225C17.6225 22.3859 15.8907 22.4902 14.3656 20.9024C12.7025 19.1706 11.2336 15.7341 11.2336 15.7341C11.2336 15.7341 11.149 15.5088 11.2409 15.3999C11.3443 15.2774 11.626 15.2696 11.626 15.2696L13.5022 15.2573C13.5022 15.2573 13.679 15.2869 13.8056 15.3797C13.9098 15.4564 13.9683 15.5997 13.9683 15.5997C13.9683 15.5997 14.2715 16.3666 14.6731 17.0604C15.457 18.4148 15.822 18.7111 16.0882 18.566C16.4759 18.3544 16.3597 16.6513 16.3597 16.6513C16.3597 16.6513 16.3668 16.0331 16.1645 15.7578C16.0078 15.5445 15.7122 15.4822 15.5817 15.4648C15.4762 15.4507 15.6495 15.2056 15.8741 15.0956C16.2117 14.9302 16.808 14.9207 17.5125 14.928C18.0613 14.9336 18.2193 14.9678 18.4339 15.0197C18.9318 15.1399 18.9163 15.5252 18.8828 16.3564C18.8728 16.6048 18.8612 16.893 18.8612 17.2258C18.8612 17.3007 18.859 17.3805 18.8568 17.4626C18.8451 17.8884 18.8318 18.3758 19.112 18.5569C19.2557 18.6496 19.6072 18.5708 20.4864 17.0778C20.9031 16.3703 21.2156 15.5384 21.2156 15.5384C21.2156 15.5384 21.2839 15.3901 21.39 15.3264C21.4985 15.2616 21.6449 15.2815 21.6449 15.2815L23.6193 15.2692C23.6193 15.2692 24.2125 15.1985 24.3086 15.4662C24.4093 15.7473 24.0869 16.4037 23.2802 17.4788C22.5142 18.4997 22.142 18.875 22.177 19.2074C22.2025 19.4497 22.4444 19.6692 22.908 20.0995C23.8799 21.0016 24.1389 21.4753 24.2005 21.5879C24.2055 21.597 24.2091 21.6037 24.2118 21.6081C24.6468 22.3294 23.7294 22.3859 23.7294 22.3859L21.9759 22.4103C21.9759 22.4103 21.5991 22.485 21.1031 22.1443C20.8438 21.9663 20.5902 21.6757 20.3487 21.3987C19.9794 20.9753 19.638 20.584 19.3468 20.6764C18.858 20.8315 18.8733 21.8846 18.8733 21.8846C18.8733 21.8846 18.8769 22.1096 18.7655 22.2294C18.6444 22.3599 18.4073 22.3859 18.4073 22.3859Z" fill="#4D76A1"/>
</svg>
