<svg width="36" height="36" viewBox="0 0 36 36" fill="none" xmlns="http://www.w3.org/2000/svg">
<path fill-rule="evenodd" clip-rule="evenodd" d="M19.459 10.1661C21.1879 11.123 22.5615 12.7814 22.9607 14.7448C17.6247 14.3648 14.0122 18.6449 15.4206 22.6851C14.2805 22.7227 13.1404 22.5542 12.069 22.2089C11.7086 22.4009 11.3484 22.5952 10.9883 22.7893C10.4552 23.0768 9.92239 23.3641 9.38955 23.6439C9.63679 22.8573 9.89778 22.0762 10.1725 21.295C8.75219 20.3482 7.58188 18.9297 7.18537 17.2374C5.70921 11.5342 13.3483 6.69822 19.4837 10.1652V10.1661H19.459ZM18.9077 13.4893C18.9645 12.7155 18.1147 12.1102 17.3958 12.3996C16.5927 12.6468 16.3986 13.8437 17.0826 14.3364C17.742 14.9353 18.9168 14.384 18.9095 13.5003L18.9077 13.4893ZM11.58 14.3474C12.1798 14.8629 13.2045 14.492 13.362 13.7247C13.6038 12.8941 12.6953 12.0791 11.8959 12.3886C11.08 12.6368 10.8849 13.8556 11.58 14.3474ZM16.2825 23.4681C13.2422 18.4581 19.8905 12.9976 25.7402 15.9719C29.5048 17.8839 30.3765 22.567 26.3931 25.4049C26.6129 26.045 26.8189 26.6878 27.0121 27.338C26.7098 27.192 26.4173 27.0256 26.1251 26.8594C25.6953 26.6148 25.2661 26.3707 24.807 26.1924C20.9518 27.3078 17.6936 25.8215 16.2825 23.4681ZM19.5919 19.6724C20.0123 20.1284 20.8795 19.9489 21.0708 19.3491C21.3657 18.6751 20.5892 17.8958 19.917 18.1797C19.309 18.3684 19.1286 19.2502 19.5919 19.6724ZM25.4609 19.4352H25.4481C25.7786 18.8436 25.2008 18.0433 24.5552 18.133C24.0882 18.1532 23.7988 18.59 23.7036 19.0112C23.7116 19.0384 23.7194 19.0661 23.7273 19.0941C23.7864 19.3032 23.8498 19.5274 24.0186 19.6824C24.416 20.0991 25.2255 19.9727 25.4609 19.4352Z" fill="#053147"/>
</svg>
