<svg width="36" height="36" viewBox="0 0 36 36" fill="none" xmlns="http://www.w3.org/2000/svg">
<path fill-rule="evenodd" clip-rule="evenodd" d="M9.10306 8H26.896C27.5055 7.99985 27.9997 8.49378 28 9.10306V26.896V26.8965C27.9998 27.5061 27.5056 28.0002 26.896 28H21.8086V20.2657H24.416L24.8066 17.2383H21.8086V15.3102C21.8086 14.4357 22.0514 13.8399 23.3053 13.8399H24.8945V11.1395C24.618 11.1027 23.6694 11.0205 22.5656 11.0205C20.2609 11.0205 18.6836 12.4268 18.6836 15.0104V17.2383H16.0859V20.2657H18.6836V28H9.10397C8.49454 28.0002 8.00031 27.5062 8 26.8969V9.10397C7.99985 8.49454 8.49378 8.00031 9.10306 8ZM18.6836 28V28H21.8086V28H18.6836Z" fill="white"/>
</svg>
