<svg width="16" height="17" viewBox="0 0 16 17" fill="none" xmlns="http://www.w3.org/2000/svg">
<path d="M1.44733 1H14.5527C15.0759 1 15.5 1.42414 15.5 1.94733V15.0526C15.5 15.5759 15.0759 16 14.5526 16H1.44733C0.924152 16 0.5 15.5759 0.5 15.0526V1.94733C0.5 1.42414 0.924142 1 1.44733 1ZM4.52988 15.2366C5.03866 15.2366 5.45108 14.8242 5.45108 14.3155V6.7996C5.45108 6.3494 5.12815 5.97464 4.70128 5.89432C5.37844 5.5184 5.83671 4.79603 5.83671 3.96664C5.83671 2.74981 4.85026 1.76335 3.63342 1.76335C2.41659 1.76335 1.43014 2.74981 1.43014 3.96664C1.43014 4.79604 1.88843 5.5184 2.56558 5.89432C2.13871 5.97463 1.81577 6.3494 1.81577 6.7996V14.3155C1.81577 14.8242 2.22819 15.2366 2.73696 15.2366H4.52988ZM13.9336 15.2366C14.4236 15.2366 14.8208 14.8394 14.8208 14.3494V10.7119C14.8208 10.6928 14.8208 10.6736 14.8209 10.654C14.8211 9.88268 14.8215 8.69771 14.4064 7.69738C14.1879 7.17109 13.8473 6.67504 13.3179 6.31373C12.7876 5.95184 12.1078 5.75229 11.2578 5.75229C10.5009 5.75229 9.90425 5.89108 9.42296 6.14852C9.32626 6.20025 9.2357 6.25597 9.15069 6.31505C8.9963 6.05371 8.71172 5.87841 8.38622 5.87841H6.52544C6.03544 5.87841 5.63818 6.27567 5.63818 6.76568V14.3494C5.63818 14.8394 6.03544 15.2366 6.52544 15.2366H8.38622C8.8763 15.2366 9.27349 14.8394 9.27349 14.3494V10.3062C9.29701 10.0606 9.36147 9.71723 9.51761 9.44581C9.6623 9.19429 9.87005 9.01948 10.248 9.01948C10.5258 9.01948 10.6812 9.09706 10.7789 9.18233C10.8854 9.27527 10.9699 9.41873 11.0293 9.61769C11.1348 9.97063 11.1288 10.3615 11.1241 10.6623C11.1232 10.7198 11.1224 10.774 11.1224 10.824V14.3494C11.1224 14.8394 11.5196 15.2366 12.0096 15.2366H13.9336Z" fill="#0192E0" stroke="#0091D9"/>
</svg>
