<svg width="36" height="36" viewBox="0 0 36 36" fill="none" xmlns="http://www.w3.org/2000/svg">
<path d="M26.1908 8H9.80916C8.81 8 8 8.81 8 9.80916V26.1908C8 27.19 8.81 28 9.80916 28H26.1908C27.19 28 28 27.19 28 26.1908V9.80916C28 8.81 27.19 8 26.1908 8ZM14.1888 25.2693C14.1888 25.5601 13.9531 25.7958 13.6624 25.7958H11.4212C11.1304 25.7958 10.8947 25.5601 10.8947 25.2693V15.8745C10.8947 15.5837 11.1304 15.348 11.4212 15.348H13.6624C13.9531 15.348 14.1888 15.5837 14.1888 15.8745V25.2693ZM12.5418 14.4624C11.3659 14.4624 10.4127 13.5092 10.4127 12.3333C10.4127 11.1574 11.3659 10.2042 12.5418 10.2042C13.7176 10.2042 14.6709 11.1574 14.6709 12.3333C14.6709 13.5092 13.7177 14.4624 12.5418 14.4624ZM25.901 25.3117C25.901 25.5791 25.6843 25.7958 25.417 25.7958H23.012C22.7447 25.7958 22.528 25.5791 22.528 25.3117V20.905C22.528 20.2476 22.7208 18.0243 20.81 18.0243C19.3279 18.0243 19.0272 19.5461 18.9669 20.2291V25.3117C18.9669 25.5791 18.7502 25.7958 18.4828 25.7958H16.1568C15.8895 25.7958 15.6727 25.5791 15.6727 25.3117V15.8321C15.6727 15.5648 15.8895 15.348 16.1568 15.348H18.4828C18.7501 15.348 18.9669 15.5648 18.9669 15.8321V16.6517C19.5164 15.827 20.3332 15.1904 22.0722 15.1904C25.9231 15.1904 25.901 18.7881 25.901 20.7648V25.3117Z" fill="#0077B7"/>
</svg>
