<svg width="81" height="80" viewBox="0 0 81 80" fill="none" xmlns="http://www.w3.org/2000/svg">
<path d="M0.666504 12C0.666504 5.37258 6.03909 0 12.6665 0H68.6665C75.2939 0 80.6665 5.37258 80.6665 12V68C80.6665 74.6274 75.2939 80 68.6665 80H12.6665C6.03909 80 0.666504 74.6274 0.666504 68V12Z" fill="#C48BD7"/>
<path fill-rule="evenodd" clip-rule="evenodd" d="M55.8172 30.2981L56.5789 30.1344L61.0083 35.9937C62.0922 37.4273 61.8075 39.4757 60.3742 40.5595L36.1952 58.8437C35.6232 59.276 34.9408 59.5038 34.2358 59.5038C34.085 59.5038 33.9329 59.4934 33.7809 59.4724C32.9186 59.3527 32.1544 58.9043 31.6293 58.2099L27.2165 52.3745L27.7157 51.6481C28.1732 50.9816 28.1538 50.1013 27.6668 49.4574C27.1799 48.8126 26.3374 48.5544 25.5722 48.8136L24.7375 49.096L20.3247 43.2599C19.2408 41.8262 19.5255 39.7779 20.9588 38.694L45.1387 20.4098C45.8329 19.885 46.691 19.6624 47.5529 19.7812C48.4153 19.9009 49.1794 20.3493 49.7045 21.0436L54.1345 26.9018L53.7695 27.59C53.4282 28.2332 53.4903 29.0217 53.9268 29.5992C54.3635 30.1771 55.1058 30.4521 55.8172 30.2981ZM51.2779 44.3728L58.9006 38.6085C59.2588 38.3374 59.3296 37.8256 59.0595 37.4668L55.5176 32.7831C54.1532 32.818 52.8186 32.1862 51.977 31.0735C51.1358 29.9611 50.8964 28.5107 51.2966 27.2013L47.7547 22.5169C47.6234 22.3435 47.4325 22.2313 47.2167 22.2015C47.0009 22.1701 46.7867 22.2277 46.6133 22.3584L38.9906 28.123L40.5142 30.1381C40.8397 30.5687 40.7549 31.1821 40.3239 31.5076C40.1476 31.6413 39.9402 31.7056 39.7348 31.7056C39.4387 31.7056 39.1465 31.5717 38.954 31.3174L37.4304 29.3024L22.4336 40.6431C22.0755 40.9139 22.0046 41.4261 22.2754 41.7846L25.6866 46.2954C27.1801 46.1256 28.683 46.7448 29.6177 47.9814C30.5524 49.218 30.7407 50.8312 30.1687 52.2231L33.5799 56.7343C33.7112 56.9077 33.9021 57.02 34.1179 57.0497C34.335 57.0808 34.5479 57.0242 34.7213 56.8928L49.7181 45.5521L48.686 44.1871C48.3605 43.7564 48.4453 43.143 48.8762 42.8175C49.3065 42.492 49.9197 42.5768 50.2458 43.0078L51.2779 44.3728ZM41.2084 32.678C41.639 32.3525 42.2518 32.437 42.578 32.8682L44.3474 35.2084C44.6729 35.6391 44.5875 36.2525 44.1572 36.578C43.9808 36.7116 43.7734 36.776 43.568 36.776C43.272 36.776 42.9798 36.6421 42.7873 36.3878L41.0182 34.0475C40.6927 33.6169 40.7775 33.0035 41.2084 32.678ZM46.4118 37.9379C46.0863 37.5076 45.4725 37.4222 45.0422 37.7477C44.6113 38.0732 44.5265 38.6866 44.852 39.1172L46.6214 41.4574C46.8139 41.7118 47.1061 41.8457 47.4022 41.8457C47.6076 41.8457 47.815 41.7813 47.9913 41.6477C48.4223 41.3222 48.5071 40.7088 48.1816 40.2781L46.4118 37.9379ZM46.8857 33.7996L50.1034 31.3662L50.6929 32.1466L51.2827 32.9266L48.065 35.3594L46.8857 33.7996Z" fill="white"/>
</svg>
