<svg width="81" height="80" viewBox="0 0 81 80" fill="none" xmlns="http://www.w3.org/2000/svg">
<path d="M0.666992 12C0.666992 5.37258 6.03958 0 12.667 0H68.667C75.2944 0 80.667 5.37258 80.667 12V68C80.667 74.6274 75.2944 80 68.667 80H12.667C6.03957 80 0.666992 74.6274 0.666992 68V12Z" fill="#F58585"/>
<g clip-path="url(#clip0_353_10835)">
<path d="M48.4321 29.4116V27.2942H42.785C42.0052 27.2942 41.373 26.6621 41.373 25.8823V17.4116C41.373 16.6322 42.0052 16 42.785 16H56.9021C57.6819 16 58.3141 16.6321 58.3141 17.4116V25.8823C58.3141 26.6621 57.682 27.2942 56.9021 27.2942H51.2554V29.4116H54.1368C56.9979 29.4116 59.5763 31.1389 60.6648 33.785C62.3952 37.9921 63.2554 42.8887 63.2554 48.4705V54.1176C64.0348 54.1176 64.667 54.7494 64.667 55.5292V59.7647C64.667 62.1037 62.7709 63.9998 60.4318 63.9998H20.9021C18.5631 63.9998 16.667 62.1037 16.667 59.7647V55.5292C16.667 54.7494 17.2991 54.1176 18.0786 54.1176V48.4705C18.0786 42.889 18.9388 37.9919 20.6692 33.785C21.3827 32.0513 22.7451 30.694 24.4318 29.9758V26.5884C24.4318 26.1595 24.6267 25.7537 24.9615 25.4858L28.4909 22.6623C28.9938 22.2602 29.705 22.2491 30.2199 22.6352L32.1964 24.1178L34.1729 22.6352C34.6882 22.2491 35.3994 22.2602 35.9019 22.6623L39.4313 25.4858C39.7665 25.7537 39.9613 26.1595 39.9613 26.5884V29.4116H48.4321ZM19.4907 56.9413V59.7649C19.4907 60.5443 20.1228 61.1765 20.9023 61.1765H60.432C61.2115 61.1765 61.8436 60.5443 61.8436 59.7649V56.9413H19.4907ZM24.4319 44.2351V33.2628C23.9357 33.6907 23.5376 34.2341 23.2804 34.8592C21.6988 38.7046 20.9022 43.2397 20.9022 48.4706V54.1177H60.4319V48.4706C60.4319 43.2397 59.6354 38.7043 58.0537 34.8592C57.4005 33.2718 55.8536 32.2352 54.137 32.2352H39.9616V44.2352C40.741 44.2352 41.3732 44.8674 41.3732 45.6472C41.3732 46.427 40.741 47.0588 39.9616 47.0588H24.4318C23.652 47.0588 23.0199 46.427 23.0199 45.6472C23.0199 44.8674 23.652 44.2352 24.4318 44.2352L24.4319 44.2351ZM44.1968 24.4702H55.4914V18.8231H44.1968V24.4702ZM27.2562 27.2663V44.2343H37.1382V27.2663L34.9927 25.55L33.0441 27.0112C32.5422 27.3879 31.8518 27.3879 31.3498 27.0112L29.4016 25.55L27.2562 27.2663ZM49.8445 37.1757C49.0647 37.1757 48.4329 36.5436 48.4329 35.7641C48.4329 34.9843 49.0647 34.3521 49.8445 34.3521C50.6243 34.3521 51.2565 34.9843 51.2565 35.7641C51.2565 36.5436 50.6243 37.1757 49.8445 37.1757ZM44.9032 37.1757C44.1238 37.1757 43.4916 36.5436 43.4916 35.7641C43.4916 34.9843 44.1238 34.3521 44.9032 34.3521C45.6831 34.3521 46.3152 34.9843 46.3152 35.7641C46.3152 36.5436 45.6831 37.1757 44.9032 37.1757ZM54.7861 37.1757C54.0063 37.1757 53.3741 36.5436 53.3741 35.7641C53.3741 34.9843 54.0063 34.3521 54.7861 34.3521C55.5656 34.3521 56.1977 34.9843 56.1977 35.7641C56.1977 36.5436 55.5656 37.1757 54.7861 37.1757ZM49.8448 42.117C49.065 42.117 48.4332 41.4848 48.4332 40.705C48.4332 39.9255 49.065 39.2934 49.8448 39.2934C50.6247 39.2934 51.2568 39.9255 51.2568 40.705C51.2568 41.4848 50.6247 42.117 49.8448 42.117ZM44.9036 42.117C44.1241 42.117 43.492 41.4848 43.492 40.705C43.492 39.9255 44.1241 39.2934 44.9036 39.2934C45.6834 39.2934 46.3156 39.9255 46.3156 40.705C46.3156 41.4848 45.6834 42.117 44.9036 42.117ZM54.7864 42.117C54.0066 42.117 53.3745 41.4848 53.3745 40.705C53.3745 39.9255 54.0066 39.2934 54.7864 39.2934C55.5659 39.2934 56.1981 39.9255 56.1981 40.705C56.1981 41.4848 55.5659 42.117 54.7864 42.117ZM49.8452 47.058C49.0654 47.058 48.4336 46.4262 48.4336 45.6463C48.4336 44.8665 49.0654 44.2344 49.8452 44.2344C50.625 44.2344 51.2572 44.8665 51.2572 45.6463C51.2572 46.4261 50.625 47.058 49.8452 47.058ZM44.9039 47.058C44.1245 47.058 43.4923 46.4262 43.4923 45.6463C43.4923 44.8665 44.1245 44.2344 44.9039 44.2344C45.6837 44.2344 46.3159 44.8665 46.3159 45.6463C46.3159 46.4261 45.6838 47.058 44.9039 47.058ZM54.7868 47.058C54.007 47.058 53.3748 46.4262 53.3748 45.6463C53.3748 44.8665 54.007 44.2344 54.7868 44.2344C55.5663 44.2344 56.1984 44.8665 56.1984 45.6463C56.1984 46.4261 55.5663 47.058 54.7868 47.058ZM44.9039 51.9992C44.1245 51.9992 43.4923 51.3671 43.4923 50.5876C43.4923 49.8078 44.1245 49.1756 44.9039 49.1756H47.0217C47.8015 49.1756 48.4336 49.8078 48.4336 50.5876C48.4336 51.3671 47.8015 51.9992 47.0217 51.9992H44.9039ZM30.7868 42.1172C30.007 42.1172 29.3748 41.4851 29.3748 40.7053C29.3748 39.9258 30.007 39.2936 30.7868 39.2936H33.6103C34.3898 39.2936 35.0219 39.9258 35.0219 40.7053C35.0219 41.4851 34.3898 42.1172 33.6103 42.1172H30.7868ZM30.7868 37.176C30.007 37.176 29.3748 36.5438 29.3748 35.7643C29.3748 34.9845 30.007 34.3524 30.7868 34.3524H33.6103C34.3898 34.3524 35.0219 34.9845 35.0219 35.7643C35.0219 36.5438 34.3898 37.176 33.6103 37.176H30.7868ZM52.6688 51.9994C51.889 51.9994 51.2572 51.3673 51.2572 50.5878C51.2572 49.808 51.889 49.1758 52.6688 49.1758H54.7865C55.566 49.1758 56.1982 49.8079 56.1982 50.5878C56.1982 51.3672 55.566 51.9994 54.7865 51.9994H52.6688Z" fill="white"/>
</g>
<defs>
<clipPath id="clip0_353_10835">
<path d="M16.667 20C16.667 17.7909 18.4579 16 20.667 16H60.667C62.8761 16 64.667 17.7909 64.667 20V60C64.667 62.2091 62.8761 64 60.667 64H20.667C18.4579 64 16.667 62.2091 16.667 60V20Z" fill="white"/>
</clipPath>
</defs>
</svg>
