<svg width="81" height="80" viewBox="0 0 81 80" fill="none" xmlns="http://www.w3.org/2000/svg">
<path d="M0.333984 12C0.333984 5.37258 5.70657 0 12.334 0H68.334C74.9614 0 80.334 5.37258 80.334 12V68C80.334 74.6274 74.9614 80 68.334 80H12.334C5.70657 80 0.333984 74.6274 0.333984 68V12Z" fill="#FAA694"/>
<g clip-path="url(#clip0_353_10813)">
<path fill-rule="evenodd" clip-rule="evenodd" d="M61.5102 32.9069C60.8684 33.2118 60.1505 33.3824 59.3927 33.3824C56.6638 33.3824 54.4515 31.1701 54.4515 28.4412C54.4515 27.6836 54.622 26.9659 54.9267 26.3242H25.7412C26.0459 26.9659 26.2164 27.6836 26.2164 28.4412C26.2164 31.1701 24.0041 33.3824 21.2752 33.3824C20.5172 33.3824 19.799 33.2117 19.1571 32.9066V46.5638C19.799 46.2588 20.5172 46.0881 21.2752 46.0881C24.0041 46.0881 26.2164 48.3004 26.2164 51.0293C26.2164 51.7876 26.0456 52.5059 25.7404 53.148H54.9275C54.6223 52.5059 54.4515 51.7876 54.4515 51.0293C54.4515 48.3004 56.6638 46.0881 59.3927 46.0881C60.1505 46.0881 60.8684 46.2587 61.5102 46.5635V32.9069ZM16.334 51.0293V28.4412V24.9126C16.334 24.1329 16.9661 23.5007 17.7459 23.5007H21.1892C21.2178 23.5002 21.2465 23.5 21.2752 23.5C21.3039 23.5 21.3325 23.5002 21.3611 23.5007H59.3068C59.3354 23.5002 59.364 23.5 59.3927 23.5C59.4214 23.5 59.4501 23.5002 59.4787 23.5007H62.9221C63.7018 23.5007 64.334 24.1329 64.334 24.9126V54.5595C64.334 55.3392 63.7018 55.9714 62.9221 55.9714H17.7459C16.9661 55.9714 16.334 55.3392 16.334 54.5595V51.0293ZM23.3929 28.4412C23.3929 27.2905 22.475 26.3541 21.3315 26.3242H21.2188C20.0754 26.3541 19.1575 27.2905 19.1575 28.4412C19.1575 29.6109 20.1057 30.5589 21.2752 30.5589C22.4447 30.5589 23.3929 29.6109 23.3929 28.4412ZM61.5102 50.9997C61.4944 49.8436 60.5523 48.9116 59.3927 48.9116C58.2232 48.9116 57.275 49.8595 57.275 51.0293C57.275 52.1988 58.2232 53.147 59.3927 53.147C60.5523 53.147 61.4944 52.2147 61.5102 51.0589V50.9997ZM61.5102 28.4708C61.4944 29.6269 60.5523 30.5589 59.3927 30.5589C58.2232 30.5589 57.275 29.6109 57.275 28.4412C57.275 27.2905 58.1929 26.3541 59.3364 26.3242H59.4491C60.5827 26.3539 61.4947 27.2745 61.5102 28.4116V28.4708ZM40.3338 48.2064C45.0119 48.2064 48.8044 44.4138 48.8044 39.7358C48.8044 35.0578 45.0118 31.2652 40.3338 31.2652C35.6558 31.2652 31.8632 35.0575 31.8632 39.7358C31.8632 44.4141 35.6558 48.2064 40.3338 48.2064ZM40.3338 45.3826C37.2152 45.3826 34.6868 42.8546 34.6868 39.7356C34.6868 36.617 37.2151 34.0887 40.3338 34.0887C43.4525 34.0887 45.9808 36.617 45.9808 39.7356C45.9808 42.8545 43.4525 45.3826 40.3338 45.3826ZM19.1575 51.0293C19.1575 52.1988 20.1057 53.147 21.2752 53.147C22.4447 53.147 23.3929 52.1988 23.3929 51.0293C23.3929 49.8595 22.4447 48.9116 21.2752 48.9116C20.1057 48.9116 19.1575 49.8595 19.1575 51.0293Z" fill="white"/>
</g>
<defs>
<clipPath id="clip0_353_10813">
<path d="M16.334 20C16.334 17.7909 18.1248 16 20.334 16H60.334C62.5431 16 64.334 17.7909 64.334 20V60C64.334 62.2091 62.5431 64 60.334 64H20.334C18.1248 64 16.334 62.2091 16.334 60V20Z" fill="white"/>
</clipPath>
</defs>
</svg>
