<svg width="81" height="80" viewBox="0 0 81 80" fill="none" xmlns="http://www.w3.org/2000/svg">
<path d="M0.666992 12C0.666992 5.37258 6.03958 0 12.667 0H68.667C75.2944 0 80.667 5.37258 80.667 12V68C80.667 74.6274 75.2944 80 68.667 80H12.667C6.03957 80 0.666992 74.6274 0.666992 68V12Z" fill="#F8D868"/>
<g clip-path="url(#clip0_353_10797)">
<path fill-rule="evenodd" clip-rule="evenodd" d="M33.7779 47.6089C35.2896 47.6089 37.5368 47.0858 39.0827 46.6705L39.8663 46.5274C39.8663 46.5274 39.822 45.9065 39.822 45.5936C39.822 41.0108 43.0001 36.9972 47.7159 35.1877C47.7159 35.1877 47.7056 35.0879 47.5483 34.5469C46.1552 29.7618 40.5366 26.1206 33.7781 26.1206C25.9279 26.1206 19.6764 31.0132 19.6764 36.8649C19.6764 38.2503 20.0228 39.5996 20.6922 40.8625C21.033 41.5057 21.456 42.1235 21.9554 42.7074C22.5762 43.4332 22.4661 44.0057 21.9241 45.6094C21.6815 46.3273 21.4471 46.9358 20.755 48.6786C20.4062 49.5574 19.9799 50.6738 19.9799 50.6738C19.9799 50.6738 20.7488 50.2298 22.3878 49.2709C27.0265 46.5567 27.2692 46.4291 28.2807 46.7574C30.0039 47.3167 31.8631 47.6089 33.7779 47.6089ZM42.5075 45.5943C42.5075 46.1083 42.5623 46.6158 42.6702 47.1138L42.6703 47.1136C42.8055 47.7368 42.4839 48.3692 41.9006 48.6269C39.4345 49.7161 36.6569 50.2945 33.7781 50.2945C31.8388 50.2945 29.9434 50.0323 28.1547 49.5253C28.0728 49.5021 28.0061 49.4777 27.9502 49.4572C27.8449 49.4186 27.7776 49.394 27.7179 49.4174C27.485 49.5086 27.1546 49.6664 26.735 49.8874C26.0391 50.2538 25.4114 50.6137 23.7092 51.6095C22.0591 52.5752 21.2764 53.0203 20.4969 53.4204C18.7616 54.3111 18.1729 54.5161 17.329 53.8556C16.437 53.1574 16.536 52.512 17.097 50.7832C17.3408 50.031 17.6352 49.2575 18.2822 47.6276C18.9303 45.9958 19.1582 45.4042 19.3797 44.7494C19.4769 44.4618 19.5942 44.0422 19.5942 44.0422C19.5942 44.0422 19.5227 43.9794 19.3412 43.7352C18.9559 43.2169 18.614 42.6776 18.3189 42.1199C17.4475 40.4754 16.9907 38.6959 16.9907 36.8647C16.9907 29.3651 24.5682 23.4343 33.7778 23.4343C42.5909 23.4343 49.9661 28.8783 50.5311 35.9972C50.5812 36.6294 50.1825 37.2105 49.5746 37.391C45.3372 38.6502 42.5075 41.9369 42.5075 45.5943ZM57.0142 53.1268C56.7935 53.0084 56.4819 52.8541 56.4819 52.8541L56.482 52.8544C56.482 52.8544 55.3453 52.9815 54.5948 52.9815C49.1143 52.9815 44.5218 49.8019 44.5218 45.5946C44.5218 41.3873 49.1146 38.2077 54.5948 38.2077C60.0745 38.2077 64.667 41.3876 64.667 45.5946C64.667 46.6479 64.3713 47.6674 63.8139 48.598C63.6356 48.8956 63.4313 49.1829 63.2028 49.4581C63.2028 49.4581 63.3884 50.3668 63.6342 51.3783L63.6496 51.4411C63.8819 52.3981 63.996 52.8969 64.0821 53.371C64.142 53.7015 64.1778 53.9732 64.1865 54.2079C64.1932 54.386 64.1854 54.5495 64.153 54.7167C64.0826 55.0818 63.9194 55.4144 63.5462 55.6726C63.1607 55.9395 62.8103 55.9657 62.4339 55.9044C62.2763 55.8788 62.1228 55.8345 61.955 55.7733C61.7178 55.6867 61.437 55.5593 61.0959 55.388C60.5782 55.1276 59.9779 54.7974 59.0196 54.2535L58.9238 54.199C57.741 53.5271 57.4961 53.3878 57.2486 53.2532C57.1779 53.2148 57.1071 53.1767 57.0142 53.1268ZM54.5949 40.8938C50.4322 40.8938 47.2081 43.1259 47.2081 45.5943L47.2079 45.5943C47.2079 48.0627 50.4323 50.2948 54.5948 50.2948C55.2016 50.2948 55.7987 50.247 56.3769 50.1534C56.9458 50.0611 57.1752 50.1639 58.2854 50.7604C58.545 50.8999 58.8431 51.0653 59.2214 51.2787C59.3695 51.3624 59.5249 51.4503 59.7305 51.5674C59.9552 51.6953 60.0968 51.7758 60.2038 51.8366L60.2509 51.8634L60.3459 51.9173C60.6089 52.0667 61.0331 52.3047 61.1057 52.3454C61.2256 52.8316 61.1164 52.3514 61.1164 52.3514C61.1164 52.3514 61.1127 52.3493 61.1057 52.3454C61.0886 52.2762 61.0669 52.1873 61.0395 52.0746L61.0244 52.0118C60.7673 50.9536 60.6839 50.5983 60.5971 50.1555C60.5356 49.8428 60.4959 49.5873 60.4792 49.3693C60.4668 49.211 60.4657 49.0661 60.4813 48.9199C60.5161 48.5953 60.6133 48.3031 60.8884 48.0184C61.1367 47.7618 61.3444 47.4934 61.5098 47.2174C61.823 46.6943 61.9811 46.1492 61.9811 45.5943C61.9811 43.1258 58.7572 40.8938 54.5949 40.8938Z" fill="white"/>
</g>
<defs>
<clipPath id="clip0_353_10797">
<path d="M16.667 20C16.667 17.7909 18.4579 16 20.667 16H60.667C62.8761 16 64.667 17.7909 64.667 20V60C64.667 62.2091 62.8761 64 60.667 64H20.667C18.4579 64 16.667 62.2091 16.667 60V20Z" fill="white"/>
</clipPath>
</defs>
</svg>
