<svg width="80" height="80" viewBox="0 0 80 80" fill="none" xmlns="http://www.w3.org/2000/svg">
<path d="M0 12C0 5.37258 5.37258 0 12 0H68C74.6274 0 80 5.37258 80 12V68C80 74.6274 74.6274 80 68 80H12C5.37258 80 0 74.6274 0 68V12Z" fill="#FBAF5A"/>
<g clip-path="url(#clip0_353_10806)">
<path d="M49.8918 61.1762H28.1764C25.8373 61.1762 23.9413 59.2801 23.9413 56.9411V44.2769C23.8833 44.1955 23.8281 44.1115 23.7755 44.0248L19.9409 37.7087C19.4018 36.8208 19 35.3908 19 34.3545V17.4116C19 16.6321 19.6321 15.9999 20.4116 15.9999C21.1914 15.9999 21.8236 16.6321 21.8236 17.4116V34.3545C21.8236 34.8732 22.0831 35.7966 22.3543 36.2432L26.1889 42.5593C26.5605 43.1716 27.3441 43.3749 27.9655 43.031C28.5685 42.6209 28.762 41.7889 28.391 41.1524L25.5474 36.2774C25.0294 35.3898 24.6471 33.9745 24.6471 32.9423V27.294C24.6471 26.5142 25.2792 25.882 26.0587 25.882C26.8385 25.882 27.4706 26.5141 27.4706 27.294V30.8233C27.4706 31.5994 28.1051 32.2349 28.8823 32.2349C29.6597 32.2349 30.2942 31.6001 30.2942 30.8187V25.8841C30.2942 25.321 30.0629 24.3413 29.8121 23.8397L26.9139 18.043C26.5651 17.3456 26.8476 16.4978 27.5451 16.1489C28.2425 15.8004 29.0906 16.083 29.4392 16.7804L30.4607 18.8234H43.2423C44.3655 18.8234 45.443 19.2698 46.2372 20.064L55.1711 28.9979C55.9656 29.7924 56.4116 30.8695 56.4116 31.9928V35.7223C56.4695 35.8037 56.5248 35.8877 56.5777 35.9748L60.4123 42.2908C60.9514 43.1784 61.3532 44.6084 61.3532 45.6447V62.5877C61.3532 63.3675 60.7211 63.9996 59.9412 63.9996C59.1614 63.9996 58.5296 63.3675 58.5296 62.5877V45.6447C58.5296 45.1264 58.2702 44.203 57.999 43.756L54.164 37.44C53.7923 36.8279 53.0091 36.6244 52.3877 36.9682C51.7847 37.3787 51.5909 38.2107 51.9622 38.8472L54.8058 43.7218C55.3238 44.6097 55.7061 46.0247 55.7061 47.0573V52.7056C55.7061 53.4854 55.074 54.1172 54.2942 54.1172C53.5147 54.1172 52.8826 53.4854 52.8826 52.7056V49.1753C52.8822 48.3995 52.2478 47.764 51.4706 47.764C50.6932 47.764 50.0587 48.3988 50.0587 49.1802V54.1147C50.0587 54.6779 50.29 55.6576 50.5408 56.1592L53.4389 61.9559C53.7878 62.6533 53.5052 63.5014 52.8078 63.85C52.1104 64.1985 51.2623 63.9159 50.9137 63.2185L49.8918 61.1762ZM48.4802 58.3527L48.0148 57.4223C47.5678 56.5286 47.2347 55.1167 47.2347 54.1153V49.1807C47.2347 46.8403 49.1328 44.9409 51.4701 44.9409C51.7521 44.9409 52.0276 44.9684 52.2941 45.0213L49.5228 40.2702C48.4286 38.3949 48.9476 35.9976 50.6636 34.7299C50.7215 34.6827 51.0985 34.4507 51.1668 34.4206C51.9376 34.0325 52.781 33.9063 53.5875 34.0161V32.2352H47.2347C44.8957 32.2352 42.9996 30.3392 42.9996 28.0001V21.6473H31.8723L32.3374 22.5775C32.7844 23.4711 33.1175 24.883 33.1175 25.8845V30.819C33.1175 33.1594 31.2194 35.0588 28.8821 35.0588C28.6002 35.0588 28.3246 35.0313 28.0578 34.9784L30.8297 39.7302C31.9236 41.6055 31.4046 44.0029 29.6887 45.2705C29.6311 45.3174 29.2541 45.5494 29.1858 45.5799C28.4151 45.9679 27.5713 46.0938 26.7647 45.9843V56.9411C26.7647 57.7205 27.3966 58.3527 28.1764 58.3527H48.4802ZM45.8231 23.6439V28.0002C45.8231 28.78 46.4552 29.4118 47.2347 29.4118H51.591L45.8231 23.6439Z" fill="white"/>
</g>
<defs>
<clipPath id="clip0_353_10806">
<path d="M16 20C16 17.7909 17.7909 16 20 16H60C62.2091 16 64 17.7909 64 20V60C64 62.2091 62.2091 64 60 64H20C17.7909 64 16 62.2091 16 60V20Z" fill="white"/>
</clipPath>
</defs>
</svg>
