<svg width="80" height="80" viewBox="0 0 80 80" fill="none" xmlns="http://www.w3.org/2000/svg">
<path d="M0 12C0 5.37258 5.37258 0 12 0H68C74.6274 0 80 5.37258 80 12V68C80 74.6274 74.6274 80 68 80H12C5.37258 80 0 74.6274 0 68V12Z" fill="#E0BAE8"/>
<g clip-path="url(#clip0_353_10842)">
<path d="M20.2351 38.5885H28.7058C31.0448 38.5885 32.9413 40.4845 32.9413 42.8236V59.765C32.9413 62.1041 31.0448 64.0002 28.7058 64.0002H20.2351C17.8961 64.0002 16 62.1041 16 59.765V42.8236C16 40.4845 17.8961 38.5885 20.2351 38.5885ZM20.2351 41.4117C19.4557 41.4117 18.8235 42.0439 18.8235 42.8237V59.7651C18.8235 60.5446 19.4557 61.1767 20.2351 61.1767H28.7058C29.4856 61.1767 30.1177 60.5446 30.1177 59.7651V42.8237C30.1177 42.0439 29.4856 41.4117 28.7058 41.4117H20.2351ZM64 20.2351V30.118C64 32.4571 62.1039 34.3531 59.7649 34.3531H42.8234C40.4844 34.3531 38.5883 32.4571 38.5883 30.118V20.2351C38.5883 17.8961 40.4844 16 42.8234 16H59.7649C62.1039 16 64 17.8961 64 20.2351ZM61.1765 20.2351C61.1765 19.4557 60.5443 18.8235 59.7649 18.8235H42.8234C42.0436 18.8235 41.4115 19.4557 41.4115 20.2351V21.6471H61.1763L61.1765 20.2351ZM41.4116 24.4706V30.1177C41.4116 30.8972 42.0438 31.5294 42.8236 31.5294H59.765C60.5445 31.5294 61.1767 30.8972 61.1767 30.1177V24.4706H41.4116ZM24.4711 59.0589C23.6913 59.0589 23.0591 58.4271 23.0591 57.6473C23.0591 56.8675 23.6912 56.2353 24.4711 56.2353C25.2509 56.2353 25.8827 56.8675 25.8827 57.6473C25.8827 58.4271 25.2509 59.0589 24.4711 59.0589ZM52.7062 44.1146L51.5869 45.234C51.0354 45.7854 50.1418 45.7854 49.5903 45.234C49.0389 44.6825 49.0389 43.7889 49.5903 43.2374L53.1197 39.7081C53.6711 39.1566 54.5651 39.1566 55.1162 39.7081L58.6456 43.2374C59.1971 43.7889 59.1971 44.6825 58.6456 45.234C58.0945 45.7854 57.2005 45.7854 56.6491 45.234L55.5297 44.1146V50.5887C55.5297 54.8767 52.0532 58.3532 47.7652 58.3532H37.8823C37.1029 58.3532 36.4707 57.7211 36.4707 56.9416C36.4707 56.1618 37.1029 55.5296 37.8823 55.5296H47.7652C50.494 55.5296 52.7062 53.3174 52.7062 50.5886V44.1146ZM25.1765 30.2392L26.2958 29.1199C26.8473 28.5687 27.7412 28.5687 28.2924 29.1199C28.8438 29.6713 28.8438 30.5653 28.2924 31.1164L24.763 34.6458C24.2115 35.1972 23.3179 35.1972 22.7665 34.6458L19.2371 31.1164C18.6856 30.5653 18.6856 29.6713 19.2371 29.1199C19.7885 28.5687 20.6821 28.5687 21.2336 29.1199L22.353 30.2392V29.4122C22.353 25.1242 25.8295 21.6477 30.1178 21.6477H33.6472C34.427 21.6477 35.0588 22.2798 35.0588 23.0593C35.0588 23.8391 34.427 24.4713 33.6472 24.4713H30.1178C27.3887 24.4713 25.1766 26.6835 25.1766 29.4123L25.1765 30.2392Z" fill="white"/>
</g>
<defs>
<clipPath id="clip0_353_10842">
<path d="M16 20C16 17.7909 17.7909 16 20 16H60C62.2091 16 64 17.7909 64 20V60C64 62.2091 62.2091 64 60 64H20C17.7909 64 16 62.2091 16 60V20Z" fill="white"/>
</clipPath>
</defs>
</svg>
